# xmcd
#
# Track frame offsets: 
#        150
#        15462
#        28459
#        44421
#        59543
#        73444
#        86193
#        104661
#        118758
#        132830
#        149236
#        167662
#        180584
#        194509
#        209801
#        223029
#        238274
#        254597
#        269526
#        284799
#        299308
#
# Disc length: 4183 seconds
#
# Revision: 1
# Processed by: cddbd v1.5.2PL0 Copyright (c) Steve Scherf et al.
# Submitted via: ExactAudioCopy v1.1
#
DISCID=78105515
DTITLE=Cristiano Araújo - Ao Vivo Em Goiânia
DYEAR=2012
DGENRE=Sertanejo
TTITLE0=É Fato
TTITLE1=Eu Sou Seu, Meu Bem
TTITLE2=Me Apego
TTITLE3=Efeitos
TTITLE4=Além Da Lenda
TTITLE5=Bara Bara (Part. Esp. Bruno and Marrone)
TTITLE6=Pot-Pourri: Relaxa - Bebendo, Cantando E Chorando
TTITLE7=Delírios De Amar (Part. Esp.: Hugo Henrique)
TTITLE8=Assim Você Mata O Papai (Part. Esp.: Fernando and Sorocaba)
TTITLE9=Não Sei Me Controlar
TTITLE10=Você Mudou (Making Love Out Of Nothing At All)
TTITLE11=Tá Mais Pra Capetinha
TTITLE12=Frases De Fogo
TTITLE13=Resgate
TTITLE14=Mente Pra Mim
TTITLE15=Quando Tem Que Acontecer
TTITLE16=Na Minha Mente (Part. Esp.: Israel and Rodolfo)
TTITLE17=Teu Coração Ainda É Meu
TTITLE18=Meus Sentimentos
TTITLE19=Deste Lado Ou Do Outro (Part. Esp.: Zé Ricardo and Thiago - Cui
TTITLE19=abano Lima)
TTITLE20=Deixa Eu Te Amar
EXTD=
EXTT0=
EXTT1=
EXTT2=
EXTT3=
EXTT4=
EXTT5=Participação Especial: Bruno and Marrone
EXTT6=
EXTT7=Participação Especial: Hugo Henrique
EXTT8=Participação Especial: Fernando and Sorocaba
EXTT9=
EXTT10=
EXTT11=
EXTT12=
EXTT13=
EXTT14=
EXTT15=
EXTT16=Participação Especial: Israel and Rodolffo
EXTT17=
EXTT18=
EXTT19=Participação Especial: Zé Ricardo and Thiago - Cuiabano Lima
EXTT20=
PLAYORDER=
